# xmcd
#
# Track frame offsets:
#	150
#	5175
#	22592
#	39225
#	58397
#	73925
#	88835
#	103532
#	121520
#	135750
#	154872
#	169645
#	186565
#	202630
#	217042
#	232075
#
# Disc length: 3300
#
# Revision: 2
# Processed by: cddbd v1.5.1PL0 Copyright (c) Steve Scherf et al.
# Submitted via: audiograbber 1.81.03
# Normalized: r1:DSETVAR1
#
DISCID=d40ce210
DTITLE=Various Artist - Hip Hop Karisma
DYEAR=2002
DGENRE=Hip Hop
TTITLE0=미애 - Miae
TTITLE1=D.O and JED(D.Base) - Fish
TTITLE2=이준(SOLID) - Fire
TTITLE3=Grumble Fellas - Do Not Care
TTITLE4=김진표 - 삐뽀아삐빠이
TTITLE5=t and 윤희중 - -38˚C
TTITLE6=JOOSUC - Side 2 Side
TTITLE7=리쌍 of Honey Family - 작은 Mic속의 자유
TTITLE8=Side-B - Life mare
TTITLE9=조PD and 윤희중 - Take It Slow With Flow
TTITLE10=은지원 and 최경진 - 변해가네
TTITLE11=Sniper - Get Up Stand Up
TTITLE12=Boysⓚout - Jamborees
TTITLE13=싸울아빗(허인창) - Soul A Beat
TTITLE14=舌魂 a.k.a Soul-D - 오지게 뽀지게 신나게 Pt.2
TTITLE15=CS.Dope and 수정 - Fire Wire
EXTD=
EXTT0=
EXTT1=
EXTT2=
EXTT3=
EXTT4=
EXTT5=
EXTT6=
EXTT7=
EXTT8=
EXTT9=
EXTT10=
EXTT11=
EXTT12=
EXTT13=
EXTT14=
EXTT15=
PLAYORDER=
